<svg xmlns="http://www.w3.org/2000/svg" version="1.1" xmlns:xlink="http://www.w3.org/1999/xlink" xmlns:svgjs="http://svgjs.dev/svgjs" width="1000" height="1012" viewBox="0 0 1000 1012"><g transform="matrix(1,0,0,1,0.8839372690451341,0.40971659919023296)"><svg viewBox="0 0 244 247" data-background-color="#ffffff" preserveAspectRatio="xMidYMid meet" height="1012" width="1000" xmlns="http://www.w3.org/2000/svg" xmlns:xlink="http://www.w3.org/1999/xlink"><g id="tight-bounds" transform="matrix(1,0,0,1,-0.21568069364701614,-0.09999999999999432)"><svg viewBox="0 0 244.43135999999996 247.2" height="247.2" width="244.43135999999996"><g><svg></svg></g><g><svg viewBox="0 0 244.43135999999996 247.2" height="247.2" width="244.43135999999996"><g transform="matrix(1,0,0,1,0,88.54589023255815)"><svg viewBox="0 0 244.43135999999996 70.1082195348837" height="70.1082195348837" width="244.43135999999996"><g><svg viewBox="0 0 244.43135999999996 70.1082195348837" height="70.1082195348837" width="244.43135999999996"><g><svg viewBox="0 0 244.43136 70.10821953488372" height="70.1082195348837" width="244.43135999999996"><g><svg viewBox="0 0 244.43136 70.10821953488372" height="70.10821953488372" width="244.43136"><g id="textblocktransform"><svg viewBox="0 0 244.43136 70.10821953488372" height="70.10821953488372" width="244.43136" id="textblock"><g><svg viewBox="0 0 244.43136 70.10821953488372" height="70.10821953488372" width="244.43136"><g transform="matrix(1,0,0,1,0,0)"><svg width="244.43136" viewBox="0.699999988079071 -29.149999618530273 109.63999938964844 31.44999885559082" height="70.10821953488372" data-palette-color="#000000"><path d="M32.25-26.4L32.25-26.4Q32.25-25.3 31.35-23.85L31.35-23.85Q30.6-22.5 29.68-22 28.75-21.5 28.75-22.1L28.75-22.1Q28.75-22.15 29.3-22.7L29.3-22.7Q30.95-24.25 30.95-25.25L30.95-25.25Q30.95-27.4 26.7-27.4L26.7-27.4Q24.9-27.4 21.95-26.73 19-26.05 16.25-24.55L16.25-24.55Q13.05-22.8 13.05-21.5L13.05-21.5Q13.05-20.45 15-19.5L15-19.5Q16.05-19 19.18-17.82 22.3-16.65 24.23-15.78 26.15-14.9 27.88-13.3 29.6-11.7 29.6-9.75 29.6-7.8 27.3-5.5L27.3-5.5Q23.8-2.15 18.2 0.08 12.6 2.3 8.6 2.3L8.6 2.3Q0.7 2.3 0.7-2.15 0.7-6.6 5.55-9.7L5.55-9.7Q9.55-12.45 13.95-12.45L13.95-12.45Q15-12.45 14.9-12.1L14.9-12.1Q14.8-11.75 13.4-11.73 12-11.7 9.8-10.78 7.6-9.85 5.7-8.1L5.7-8.1Q3.2-5.85 3.2-3.6L3.2-3.6Q3.2-2.2 4.55-1.1 5.9 0 9.7 0 13.5 0 17.2-1.2L17.2-1.2Q25.2-3.85 27.2-7L27.2-7Q28-8.15 28-8.95L28-8.95Q28-11.25 25.2-12.55L25.2-12.55Q21.95-14.05 16.1-16L16.1-16Q13.85-16.75 12.28-17.98 10.7-19.2 10.7-20.93 10.7-22.65 12.58-24.33 14.45-26 17.1-27L17.1-27Q22.8-29.15 26.75-29.15L26.75-29.15Q32.25-29.15 32.25-26.4ZM34.1 0.55L34.1 0.55Q33.3 0.55 32.37 0.08 31.45-0.4 30.8-1.28 30.15-2.15 30.15-3.15 30.15-4.15 30.6-5.05L30.6-5.05Q31.6-7.15 33.82-9.13 36.05-11.1 38.45-12.5 40.85-13.9 42.25-14.25 43.65-14.6 44.97-14.6 46.3-14.6 47.25-13.93 48.2-13.25 48.2-12.5L48.2-12.5Q48.2-12.25 48.15-12.2 48.1-12.15 47.9-12.25L47.9-12.25Q47.3-13.2 45.42-13.2 43.55-13.2 41.17-11.98 38.8-10.75 36.7-8.9L36.7-8.9Q34.95-7.25 33.62-5.18 32.3-3.1 32.3-2.15L32.3-2.15Q32.3-0.3 33.35-0.3 34.4-0.3 36.55-2L36.55-2Q40.1-5 41.4-6.4L41.4-6.4Q46-11.35 46.35-11.35L46.35-11.35Q46.95-11.35 47.8-11 48.65-10.65 48.35-10.15L48.35-10.15Q45.8-6.55 45.35-2.9L45.35-2.9Q45.3-2.45 45.3-1.75 45.3-1.05 45.7-0.6L45.7-0.6Q46.45 0.2 47.75-0.5 49.05-1.2 51.37-3.3 53.7-5.4 55.1-7.4L55.1-7.4Q55.3-7.65 55.55-7.53 55.8-7.4 55.8-7.3L55.8-7.3Q55.8-6.55 53.42-4.03 51.05-1.5 49.8-0.6L49.8-0.6Q47.45 1.15 45.45 1.15L45.45 1.15Q43.55 1.15 42.9-0.75L42.9-0.75Q42.75-1.35 42.75-2.1L42.75-2.1Q42.75-4.35 43.7-6.85L43.7-6.85Q43.5-6.75 41.85-4.85 40.2-2.95 38.02-1.2 35.85 0.55 34.1 0.55ZM57.05-11.15L57.05-11.15Q57.05-13.55 55.65-13.55L55.65-13.55Q55.35-13.55 55.02-13.48 54.7-13.4 54.7-13.6 54.7-13.8 55-14.1L55-14.1Q55.3-14.35 57.05-14.5L57.05-14.5Q59.15-14.5 59.67-13.9 60.2-13.3 60.2-12.7 60.2-12.1 59.27-9.73 58.35-7.35 58.3-7.25L58.3-7.25Q56.8-2.75 56.95-1.6L56.95-1.6Q61.45-7.65 62.85-9.15L62.85-9.15Q65.8-12.4 67.05-13.6L67.05-13.6Q69.95-16.3 72.15-17.25L72.15-17.25Q72.8-17.5 73.3-17.5L73.3-17.5Q74.95-17.5 75.55-16.5L75.55-16.5Q75.75-16.25 75.75-16.03 75.75-15.8 75.6-15.5 75.45-15.2 75.05-15.53 74.65-15.85 73.25-15.85L73.25-15.85Q70.95-15.85 65.55-10.45L65.55-10.45Q62.3-7.1 59.57-3.45 56.85 0.2 56.65 1.75L56.65 1.75Q56.65 2.15 55.9 2.15 55.15 2.15 54.77 1.53 54.4 0.9 54.4 0.48 54.4 0.05 54.45-0.28 54.5-0.6 55.45-3.95 56.4-7.3 56.65-8.4L56.65-8.4Q56.05-7.4 55-5.95L55-5.95Q54.65-5.55 54.42-5.73 54.2-5.9 54.2-6.05 54.2-6.2 54.3-6.4L54.3-6.4Q56.4-9.25 57.05-11.15ZM81.74-14.55L81.74-14.55Q84.44-14.55 84.44-11.95L84.44-11.95Q84.44-10.6 83.69-9.75L83.69-9.75Q82.44-7.9 79.64-6.53 76.84-5.15 74.89-5L74.89-5Q74.19-4.95 74.14-5.4L74.14-5.4Q74.09-5.6 74.27-5.65 74.44-5.7 74.54-5.7L74.54-5.7Q75.69-5.8 77.49-6.8L77.49-6.8Q80.84-8.6 82.39-10.5L82.39-10.5Q83.04-11.4 83.04-12.23 83.04-13.05 82.24-13.05L82.24-13.05Q81.59-13.05 80.49-12.5L80.49-12.5Q78.14-11.4 75.54-8.68 72.94-5.95 72.14-3.35L72.14-3.35Q71.89-2.55 71.89-1.78 71.89-1 72.54-0.3 73.19 0.4 74.54 0.4L74.54 0.4Q76.04 0.4 77.99-0.4L77.99-0.4Q83.64-2.7 86.69-7.35L86.69-7.35Q86.99-7.75 87.24-7.5L87.24-7.5Q87.44-7.4 87.44-7.25 87.44-7.1 87.29-6.9L87.29-6.9Q85.79-4.4 83.49-2.45L83.49-2.45Q79.04 1.35 74.84 1.35L74.84 1.35Q71.24 1.35 69.79-0.8L69.79-0.8Q69.24-1.65 69.24-2.85 69.24-4.05 69.89-5.7L69.89-5.7Q71.14-8.55 75.24-11.55 79.34-14.55 81.74-14.55ZM88.64 0.55L88.64 0.55Q87.84 0.55 86.92 0.08 85.99-0.4 85.34-1.28 84.69-2.15 84.69-3.15 84.69-4.15 85.14-5.05L85.14-5.05Q86.14-7.15 88.37-9.13 90.59-11.1 92.99-12.5 95.39-13.9 96.79-14.25 98.19-14.6 99.52-14.6 100.84-14.6 101.79-13.93 102.74-13.25 102.74-12.5L102.74-12.5Q102.74-12.25 102.69-12.2 102.64-12.15 102.44-12.25L102.44-12.25Q101.84-13.2 99.97-13.2 98.09-13.2 95.72-11.98 93.34-10.75 91.24-8.9L91.24-8.9Q89.49-7.25 88.17-5.18 86.84-3.1 86.84-2.15L86.84-2.15Q86.84-0.3 87.89-0.3 88.94-0.3 91.09-2L91.09-2Q94.64-5 95.94-6.4L95.94-6.4Q100.54-11.35 100.89-11.35L100.89-11.35Q101.49-11.35 102.34-11 103.19-10.65 102.89-10.15L102.89-10.15Q100.34-6.55 99.89-2.9L99.89-2.9Q99.84-2.45 99.84-1.75 99.84-1.05 100.24-0.6L100.24-0.6Q100.99 0.2 102.29-0.5 103.59-1.2 105.92-3.3 108.24-5.4 109.64-7.4L109.64-7.4Q109.84-7.65 110.09-7.53 110.34-7.4 110.34-7.3L110.34-7.3Q110.34-6.55 107.97-4.03 105.59-1.5 104.34-0.6L104.34-0.6Q101.99 1.15 99.99 1.15L99.99 1.15Q98.09 1.15 97.44-0.75L97.44-0.75Q97.29-1.35 97.29-2.1L97.29-2.1Q97.29-4.35 98.24-6.85L98.24-6.85Q98.04-6.75 96.39-4.85 94.74-2.95 92.57-1.2 90.39 0.55 88.64 0.55Z" opacity="1" transform="matrix(1,0,0,1,0,0)" fill="#000000" class="wordmark-text-0" data-fill-palette-color="primary" id="text-0"></path></svg></g></svg></g></svg></g></svg></g><g></g></svg></g></svg></g></svg></g><path d="M0 82.546L0 1 244.431 1 244.431 82.546 238.109 82.546 238.109 7.322 6.322 7.322 6.322 82.546 0 82.546M0 164.654L0 246.2 244.431 246.2 244.431 164.654 238.109 164.654 238.109 239.878 6.322 239.878 6.322 164.654 0 164.654" fill="#000000" stroke="transparent" data-fill-palette-color="primary"></path></svg></g><defs></defs></svg><rect width="244.43135999999996" height="247.2" fill="none" stroke="none" visibility="hidden"></rect></g></svg></g></svg>