<svg xmlns="http://www.w3.org/2000/svg" version="1.1" xmlns:xlink="http://www.w3.org/1999/xlink" xmlns:svgjs="http://svgjs.dev/svgjs" width="1000" height="1000" viewBox="0 0 1000 1000"><g transform="matrix(1,0,0,1,0,0)"><svg viewBox="0 0 280 280" data-background-color="#ffffff" preserveAspectRatio="xMidYMid meet" height="1000" width="1000" xmlns="http://www.w3.org/2000/svg" xmlns:xlink="http://www.w3.org/1999/xlink"><g id="tight-bounds" transform="matrix(1,0,0,1,0,0)"><svg viewBox="0 0 280 280" height="280" width="280"><g><svg viewBox="0 0 280 280" height="280" width="280"><g><svg viewBox="0 0 280 280" height="280" width="280"><g id="textblocktransform"><svg viewBox="0 0 280 280" height="280" width="280" id="textblock"><g><svg viewBox="0 0 280 280" height="280" width="280"><g transform="matrix(1,0,0,1,90.50252531694167,90.79120767037088)"><svg viewBox="0 0 98.99494936611666 98.41758465925822" height="98.41758465925822" width="98.99494936611666"><g><svg xmlns="http://www.w3.org/2000/svg" viewBox="20 20.17376136779785 60.018585205078125 59.668540954589844" x="0" y="0" height="98.41758465925822" width="98.99494936611666" class="icon-o-0" data-fill-palette-color="accent" id="o-0"><g data-name="Calque 2" fill="#bb84e8" data-fill-palette-color="accent"><path d="M23.82 23.07A1.82 1.82 0 1 1 22 24.88 1.82 1.82 0 0 1 23.82 23.07Zm0 5.58a3.73 3.73 0 0 0 2-0.56c2.07 1.44 9.08 6.45 10.21 7.14a6.25 6.25 0 0 0 3.19 1.25c0.63 0 2 0.06 4.13 0.06A2.75 2.75 0 0 0 45.8 38a2.76 2.76 0 1 0-2.69-3.32c-1.94 0-3.26 0-3.82-0.06A3.81 3.81 0 0 1 37 33.71c-1-0.63-7.64-5.39-9.9-7A4 4 0 0 0 27.57 25a3.7 3.7 0 0 0-3.7-3.7 3.74 3.74 0 0 0-3.7 3.7A3.6 3.6 0 0 0 23.82 28.64Z" fill="#bb84e8" data-fill-palette-color="accent"></path><path d="M22.13 44.61a1.82 1.82 0 1 1 1.82 1.82A1.78 1.78 0 0 1 22.13 44.61Zm5.39 0.94H33a2.71 2.71 0 0 0 2.57 1.82 2.76 2.76 0 0 0 0-5.51A2.71 2.71 0 0 0 33 43.67H27.52a3.76 3.76 0 0 0-3.57-2.76 3.7 3.7 0 0 0-3.7 3.7 3.74 3.74 0 0 0 3.7 3.7A3.52 3.52 0 0 0 27.52 45.55Z" fill="#bb84e8" data-fill-palette-color="accent"></path><path d="M28.33 49.87a1.82 1.82 0 1 1-1.82 1.82A1.82 1.82 0 0 1 28.33 49.87Zm0 5.58a3.7 3.7 0 0 0 3.57-2.76H33a2.72 2.72 0 0 0 2.57 1.82 2.76 2.76 0 0 0 0-5.51A2.71 2.71 0 0 0 33 50.81H31.9a3.76 3.76 0 0 0-3.57-2.76 3.7 3.7 0 0 0 0 7.39Z" fill="#bb84e8" data-fill-palette-color="accent"></path><path d="M23.7 75.24a1.82 1.82 0 1 1 1.82-1.82A1.78 1.78 0 0 1 23.7 75.24Zm1.06-5.39V63.4c0-2.94 1-3.57 2.69-3.57 2.07 0 4.38 0 5.39 0.06a2.73 2.73 0 0 0 2.63 1.82 2.76 2.76 0 1 0 0-5.51A2.71 2.71 0 0 0 32.9 58c-1.06 0-3.38-0.06-5.39-0.06-4.64 0-4.64 4.07-4.64 5.45v6.39A3.76 3.76 0 0 0 20 73.42a3.7 3.7 0 0 0 3.7 3.7 3.74 3.74 0 0 0 3.7-3.7A3.58 3.58 0 0 0 24.76 69.86Z" fill="#bb84e8" data-fill-palette-color="accent"></path><path d="M75.06 75.24a1.82 1.82 0 1 1 1.82-1.82A1.82 1.82 0 0 1 75.06 75.24Zm0.81-5.45V63.4c0-1.31 0-5.45-4.57-5.45-2.07 0-4.38 0-5.39 0.06a2.71 2.71 0 0 0-2.57-1.82 2.76 2.76 0 1 0 0 5.51A2.85 2.85 0 0 0 66 59.9c1.06 0 3.38-0.06 5.39-0.06C73 59.83 74 60.4 74 63.4v6.45a3.7 3.7 0 0 0 1 7.26 3.71 3.71 0 0 0 0.82-7.33Z" fill="#bb84e8" data-fill-palette-color="accent"></path><path d="M72.42 23.69A1.57 1.57 0 1 1 74 25.26 1.59 1.59 0 0 1 72.42 23.69ZM63.59 47.37A2.76 2.76 0 0 0 66 45.86h4.57c4.26 0 4.26-3.76 4.26-5V27a3.46 3.46 0 1 0-4.26-3.38A3.44 3.44 0 0 0 73.05 27v13.9c0 2.63-0.82 3.13-2.38 3.13H66.35a2.75 2.75 0 0 0-5.45 0.56A2.63 2.63 0 0 0 63.59 47.37Z" fill="#bb84e8" data-fill-palette-color="accent"></path><path d="M76.37 50.13a1.82 1.82 0 1 1-1.82 1.82A1.78 1.78 0 0 1 76.37 50.13Zm-13 4.57A2.71 2.71 0 0 0 66 52.88h6.77a3.76 3.76 0 0 0 3.57 2.76A3.7 3.7 0 1 0 72.74 51H66a2.71 2.71 0 0 0-2.57-1.82 2.78 2.78 0 0 0-2.76 2.76A2.73 2.73 0 0 0 63.4 54.7Z" fill="#bb84e8" data-fill-palette-color="accent"></path><rect x="40.48" y="39.98" width="18.04" height="23.93" rx="3.95" ry="3.95" fill="#bb84e8" data-fill-palette-color="accent"></rect><path d="M40.48 24.45a1.82 1.82 0 1 1-1.82 1.82A1.86 1.86 0 0 1 40.48 24.45Zm0 5.58A3.7 3.7 0 0 0 44 27.33h6.26c0.69 0 1.31 0 1.57 0.25s0.31 0.44 0.31 1.25c0 1.13 0 2.63-0.06 3.82a2.76 2.76 0 1 0 3.76 2.57 2.76 2.76 0 0 0-1.94-2.63c0-1.19 0.06-2.63 0.06-3.76a3.32 3.32 0 0 0-0.82-2.57 3.69 3.69 0 0 0-2.88-0.75h-6.2A3.71 3.71 0 1 0 40.48 30Z" fill="#bb84e8" data-fill-palette-color="accent"></path><path d="M35 76.18a1.82 1.82 0 1 1-1.82-1.82A1.78 1.78 0 0 1 35 76.18ZM45.8 66A2.71 2.71 0 0 0 43.3 67.6h-7c-1.31 0-4.07 0-4.07 3.7v1.25a3.68 3.68 0 0 0 0.88 7.27 3.74 3.74 0 0 0 3.7-3.7 3.7 3.7 0 0 0-2.69-3.57c0-0.37-0.06-0.82-0.06-1.25 0-1.69 0.56-1.82 2.19-1.82h6.83a2.69 2.69 0 0 0 2.63 2 2.78 2.78 0 0 0 2.76-2.76A2.69 2.69 0 0 0 45.8 66Z" fill="#bb84e8" data-fill-palette-color="accent"></path><path d="M62.71 78a1.82 1.82 0 0 1-1.82-1.82 1.87 1.87 0 0 1 1.82-1.88 1.82 1.82 0 0 1 1.82 1.82A1.87 1.87 0 0 1 62.71 78Zm0.88-5.45V71.29c0-3.7-2.76-3.7-4.07-3.7H55.7A2.67 2.67 0 0 0 53.2 66a2.76 2.76 0 1 0 2.63 3.51h3.7c1.63 0 2.19 0.12 2.19 1.82a8.09 8.09 0 0 1-0.06 1.25 3.7 3.7 0 1 0 4.7 3.57A3.57 3.57 0 0 0 63.59 72.55Z" fill="#bb84e8" data-fill-palette-color="accent"></path></g></svg></g></svg></g><g><path d="M22.352 86.116v0c1.77 0.631 3.279 1.486 4.527 2.565 1.25 1.073 2.21 2.306 2.882 3.699 0.668 1.385 1.032 2.894 1.091 4.526 0.053 1.63-0.229 3.311-0.846 5.043v0l-3.151 8.84-23.616-8.418 3.151-8.84c0.618-1.732 1.466-3.212 2.544-4.438 1.072-1.228 2.311-2.166 3.717-2.812 1.402-0.655 2.926-1.002 4.573-1.042 1.649-0.047 3.358 0.246 5.128 0.877zM21.182 89.397v0c-1.448-0.516-2.814-0.782-4.098-0.798-1.286-0.01-2.453 0.205-3.5 0.644-1.05 0.445-1.967 1.109-2.752 1.991-0.787 0.888-1.405 1.961-1.853 3.22v0l-2.005 5.624 18.438 6.572 2.005-5.624c0.449-1.258 0.649-2.48 0.601-3.666-0.05-1.179-0.337-2.272-0.862-3.279-0.527-1-1.292-1.904-2.295-2.71-1.005-0.8-2.231-1.458-3.679-1.974z" fill="#bb84e8" data-fill-palette-color="primary"></path><path d="M21.515 63.932l26.502 5.18-1.426 2.207c-0.164 0.254-0.362 0.418-0.594 0.492-0.226 0.078-0.463 0.092-0.711 0.044v0l-6.351-1.322-6.108 9.456 3.816 5.246c0.127 0.186 0.209 0.407 0.244 0.661 0.026 0.257-0.039 0.506-0.196 0.749v0l-1.426 2.207-15.618-22.028zM24.871 69.036l6.414 8.831 5.081-7.866-10.704-2.228c-0.668-0.128-1.468-0.345-2.397-0.649v0c0.337 0.369 0.639 0.712 0.906 1.028 0.273 0.32 0.506 0.615 0.7 0.884z" fill="#bb84e8" data-fill-palette-color="primary"></path><path d="M34.655 46.149l19.108 16.232-2.197 2.586-19.108-16.232z" fill="#bb84e8" data-fill-palette-color="primary"></path><path d="M45.843 35.59l14.594 16.758 8.186-7.129 1.871 2.149-10.744 9.357-16.466-18.907z" fill="#bb84e8" data-fill-palette-color="primary"></path><path d="M74.817 15.663l0.082 17.686 5.227 8.488-2.873 1.769-5.226-8.488-15.738-8.047 2.529-1.557c0.257-0.158 0.501-0.218 0.73-0.178 0.235 0.036 0.465 0.116 0.69 0.238v0l9.992 5.282c0.409 0.229 0.777 0.456 1.105 0.679 0.322 0.228 0.628 0.457 0.92 0.688v0c-0.081-0.376-0.151-0.758-0.21-1.148-0.059-0.39-0.095-0.813-0.108-1.27v0l-0.235-11.29c-0.007-0.216 0.023-0.444 0.089-0.681 0.063-0.244 0.217-0.441 0.463-0.592v0z" fill="#bb84e8" data-fill-palette-color="primary"></path><path d="M80.638 12.874l18.334-6.997 1.02 2.671-7.563 2.887 7.92 20.752-3.171 1.21-7.92-20.752-7.601 2.9z" fill="#bb84e8" data-fill-palette-color="primary"></path><path d="M107.83 3.674l15.151-3.003 0.538 2.716-11.803 2.339 1.619 8.168 9.561-1.895 0.517 2.608-9.561 1.895 1.662 8.385 11.803-2.339 0.538 2.716-15.151 3.003z" fill="#bb84e8" data-fill-palette-color="primary"></path><path d="M151.508 20.225v0c0.188 0.002 0.355 0.077 0.501 0.225v0l1.317 1.472c-1.031 1.179-2.28 2.095-3.75 2.747-1.476 0.652-3.244 0.969-5.304 0.95v0c-1.806-0.016-3.441-0.342-4.906-0.979-1.465-0.637-2.712-1.524-3.743-2.66-1.024-1.13-1.818-2.486-2.381-4.069-0.557-1.576-0.827-3.31-0.811-5.202v0c0.016-1.886 0.34-3.615 0.972-5.188 0.624-1.565 1.495-2.91 2.612-4.035 1.117-1.125 2.451-1.989 4-2.593 1.549-0.611 3.257-0.908 5.123-0.892v0c1.846 0.016 3.434 0.315 4.765 0.897 1.331 0.582 2.509 1.368 3.534 2.356v0l-1.111 1.541c-0.082 0.12-0.176 0.217-0.284 0.29-0.108 0.073-0.259 0.109-0.454 0.107v0c-0.154-0.001-0.315-0.056-0.482-0.165-0.167-0.116-0.367-0.255-0.601-0.418-0.234-0.163-0.507-0.34-0.821-0.531-0.307-0.191-0.678-0.368-1.113-0.533-0.428-0.172-0.927-0.313-1.497-0.426-0.57-0.119-1.227-0.182-1.971-0.189v0c-1.342-0.012-2.573 0.209-3.692 0.663-1.118 0.453-2.084 1.103-2.896 1.949-0.813 0.839-1.449 1.87-1.91 3.095-0.46 1.218-0.697 2.585-0.71 4.102v0c-0.014 1.564 0.199 2.959 0.638 4.184 0.439 1.232 1.044 2.275 1.816 3.127 0.765 0.852 1.675 1.505 2.732 1.957 1.057 0.452 2.199 0.684 3.427 0.694v0c0.745 0.006 1.417-0.031 2.015-0.113 0.591-0.082 1.143-0.215 1.655-0.399 0.505-0.184 0.98-0.418 1.426-0.702 0.439-0.278 0.881-0.613 1.328-1.006v0c0.196-0.173 0.388-0.258 0.576-0.256z" fill="#bb84e8" data-fill-palette-color="primary"></path><path d="M183.898 6.419l-5.408 24.481-3.333-0.736 2.461-11.14-13.185-2.912-2.46 11.14-3.334-0.736 5.408-24.482 3.333 0.736-2.413 10.924 13.185 2.912 2.413-10.923z" fill="#bb84e8" data-fill-palette-color="primary"></path><path d="M192.914 37.597l-8.033-3.763 10.637-22.704 7.239 3.392c1.398 0.655 2.536 1.359 3.415 2.111 0.875 0.743 1.519 1.52 1.933 2.329 0.411 0.815 0.601 1.66 0.569 2.535-0.029 0.884-0.258 1.784-0.688 2.702v0c-0.262 0.559-0.602 1.056-1.02 1.49-0.418 0.434-0.908 0.79-1.468 1.069-0.56 0.279-1.191 0.469-1.891 0.571-0.697 0.096-1.457 0.088-2.28-0.023v0c1.509 1.1 2.482 2.282 2.919 3.547 0.441 1.259 0.329 2.597-0.334 4.013v0c-0.45 0.96-1.038 1.756-1.764 2.387-0.723 0.625-1.558 1.064-2.506 1.316-0.946 0.246-1.988 0.295-3.127 0.148-1.13-0.151-2.33-0.525-3.601-1.12zM197.694 27.227l-4.896-2.294-3.699 7.897 4.914 2.302c0.875 0.41 1.673 0.661 2.393 0.754 0.726 0.096 1.378 0.056 1.957-0.117 0.575-0.168 1.075-0.46 1.5-0.876 0.422-0.41 0.775-0.919 1.06-1.527v0c0.547-1.167 0.566-2.285 0.059-3.353-0.514-1.071-1.61-1.999-3.288-2.786zM197.454 14.995l-3.631 7.75 4.058 1.901c0.869 0.407 1.666 0.662 2.389 0.763 0.72 0.108 1.369 0.093 1.944-0.045 0.573-0.147 1.072-0.413 1.498-0.799 0.426-0.386 0.772-0.865 1.04-1.437v0c0.624-1.331 0.68-2.495 0.168-3.49-0.509-1.002-1.608-1.899-3.299-2.691v0z" fill="#bb84e8" data-fill-palette-color="primary"></path><path d="M235.828 36.496l-16.498 6.375-6.071 7.906-2.675-2.054 6.071-7.906 1.914-17.572 2.356 1.809c0.24 0.184 0.382 0.39 0.426 0.619 0.05 0.233 0.058 0.476 0.024 0.729v0l-1.377 11.218c-0.068 0.464-0.149 0.888-0.242 1.274-0.098 0.382-0.203 0.75-0.315 1.104v0c0.322-0.21 0.654-0.411 0.998-0.605 0.343-0.193 0.726-0.378 1.148-0.553v0l10.466-4.239c0.2-0.084 0.422-0.137 0.668-0.16 0.25-0.028 0.49 0.046 0.719 0.222v0z" fill="#bb84e8" data-fill-palette-color="primary"></path><path d="M240.51 40.949l13.06 14.647-2.134 1.903-5.388-6.042-16.578 14.783-2.258-2.532 16.578-14.783-5.415-6.072z" fill="#bb84e8" data-fill-palette-color="primary"></path><path d="M258.779 63.086l8.199 13.09-2.347 1.47-6.387-10.197-7.057 4.42 5.174 8.26-2.252 1.411-5.174-8.26-7.245 4.538 6.387 10.197-2.346 1.47-8.2-13.09z" fill="#bb84e8" data-fill-palette-color="primary"></path><path d="M274.147 99.569l-1.798-0.171c-0.202-0.036-0.364-0.092-0.487-0.166-0.125-0.081-0.222-0.208-0.291-0.383v0c-0.071-0.181-0.061-0.43 0.031-0.748 0.086-0.315 0.167-0.704 0.245-1.167 0.078-0.463 0.103-0.996 0.076-1.598-0.018-0.598-0.175-1.273-0.469-2.022v0c-0.277-0.706-0.618-1.29-1.022-1.752-0.401-0.47-0.836-0.826-1.306-1.067-0.467-0.235-0.958-0.356-1.473-0.363-0.511-0.016-1.023 0.077-1.535 0.278v0c-0.65 0.255-1.128 0.626-1.434 1.114-0.297 0.492-0.496 1.06-0.596 1.705-0.1 0.645-0.129 1.345-0.085 2.1 0.037 0.757 0.075 1.532 0.112 2.325 0.037 0.793 0.037 1.583-0.001 2.369-0.038 0.786-0.181 1.531-0.432 2.235-0.25 0.704-0.643 1.348-1.177 1.933-0.537 0.579-1.287 1.057-2.25 1.434v0c-1.025 0.402-2.053 0.603-3.083 0.604-1.028 0.007-2.005-0.194-2.93-0.602-0.925-0.409-1.769-1.026-2.533-1.851-0.761-0.819-1.385-1.847-1.87-3.085v0c-0.593-1.512-0.859-2.998-0.797-4.457 0.062-1.459 0.387-2.809 0.975-4.049v0l1.857 0.321c0.153 0.041 0.295 0.108 0.425 0.201 0.13 0.093 0.225 0.215 0.283 0.364v0c0.091 0.231 0.072 0.541-0.056 0.931-0.128 0.389-0.254 0.86-0.376 1.413-0.122 0.553-0.182 1.189-0.181 1.91 0.001 0.721 0.179 1.531 0.532 2.43v0c0.294 0.75 0.66 1.378 1.096 1.885 0.437 0.506 0.922 0.889 1.457 1.148 0.534 0.259 1.104 0.396 1.708 0.412 0.611 0.013 1.235-0.106 1.872-0.356v0c0.706-0.277 1.22-0.666 1.543-1.168 0.325-0.495 0.539-1.062 0.641-1.701 0.1-0.645 0.122-1.342 0.066-2.092-0.047-0.746-0.096-1.513-0.146-2.301-0.052-0.794-0.064-1.579-0.036-2.354 0.031-0.784 0.178-1.53 0.441-2.239 0.265-0.703 0.685-1.35 1.26-1.944 0.572-0.6 1.374-1.102 2.405-1.506v0c0.825-0.324 1.685-0.474 2.581-0.451 0.9 0.015 1.766 0.209 2.597 0.582 0.84 0.377 1.614 0.942 2.321 1.697 0.707 0.754 1.288 1.712 1.744 2.874v0c0.512 1.306 0.773 2.577 0.783 3.814 0.009 1.237-0.22 2.408-0.687 3.514z" fill="#bb84e8" data-fill-palette-color="primary"></path><path d="M29.257 198.758v0c-1.77 0.631-3.48 0.923-5.128 0.877-1.646-0.04-3.17-0.388-4.573-1.043-1.393-0.651-2.629-1.589-3.707-2.815-1.072-1.228-1.917-2.709-2.535-4.441v0l-3.151-8.84 23.616-8.418 3.151 8.84c0.618 1.732 0.896 3.415 0.837 5.046-0.053 1.63-0.42 3.139-1.101 4.529-0.672 1.394-1.633 2.627-2.882 3.7-1.247 1.079-2.756 1.934-4.527 2.565zM28.088 195.476v0c1.448-0.516 2.674-1.174 3.679-1.974 1.002-0.806 1.77-1.711 2.303-2.713 0.531-1.009 0.822-2.103 0.872-3.282 0.048-1.186-0.153-2.408-0.601-3.666v0l-2.005-5.625-18.437 6.573 2.004 5.624c0.449 1.258 1.066 2.332 1.853 3.22 0.785 0.882 1.699 1.547 2.742 1.994 1.041 0.441 2.205 0.657 3.491 0.647 1.284-0.016 2.65-0.282 4.099-0.798z" fill="#bb84e8" data-fill-palette-color="primary"></path><path d="M48.75 205.811l-15.619 22.028-1.426-2.208c-0.164-0.254-0.232-0.501-0.204-0.743 0.022-0.238 0.106-0.46 0.253-0.667v0l3.815-5.245-6.108-9.456-6.35 1.321c-0.222 0.04-0.457 0.023-0.703-0.049-0.245-0.082-0.445-0.244-0.602-0.486v0l-1.426-2.208 26.501-5.18zM42.717 206.771l-10.687 2.216 5.081 7.866 6.432-8.841c0.392-0.557 0.918-1.196 1.577-1.919v0c-0.475 0.155-0.912 0.289-1.31 0.403-0.404 0.117-0.768 0.209-1.093 0.275z" fill="#bb84e8" data-fill-palette-color="primary"></path><path d="M59.365 220.195l-19.108 16.232-2.197-2.586 19.108-16.232z" fill="#bb84e8" data-fill-palette-color="primary"></path><path d="M67.137 227.295l-14.595 16.758 8.185 7.129-1.871 2.148-10.744-9.357 16.466-18.906z" fill="#bb84e8" data-fill-palette-color="primary"></path><path d="M91.816 244.063l-15.755 8.036-5.226 8.488-2.873-1.768 5.227-8.488 0.099-17.676 2.529 1.557c0.257 0.158 0.42 0.349 0.488 0.572 0.073 0.226 0.106 0.467 0.098 0.723v0l-0.217 11.3c-0.02 0.468-0.057 0.899-0.11 1.293-0.059 0.39-0.125 0.766-0.2 1.13v0c0.299-0.242 0.609-0.477 0.931-0.704 0.322-0.228 0.683-0.45 1.085-0.668v0l9.975-5.293c0.19-0.104 0.406-0.18 0.648-0.227 0.246-0.054 0.492-0.005 0.738 0.147v0z" fill="#bb84e8" data-fill-palette-color="primary"></path><path d="M92.198 244.17l18.335 6.997-1.02 2.672-7.563-2.887-7.92 20.752-3.17-1.21 7.92-20.752-7.601-2.901z" fill="#bb84e8" data-fill-palette-color="primary"></path><path d="M114.134 251.858l15.151 3.003-0.539 2.716-11.803-2.34-1.619 8.168 9.561 1.895-0.517 2.608-9.56-1.895-1.662 8.385 11.802 2.34-0.538 2.716-15.151-3.003z" fill="#bb84e8" data-fill-palette-color="primary"></path><path d="M151.572 274.48v0c0.188-0.002 0.356 0.071 0.505 0.217v0l1.342 1.449c-1.01 1.197-2.244 2.134-3.702 2.811-1.464 0.677-3.227 1.025-5.287 1.042v0c-1.806 0.016-3.446-0.282-4.922-0.893-1.475-0.612-2.738-1.477-3.788-2.596-1.043-1.112-1.861-2.454-2.451-4.026-0.584-1.566-0.884-3.295-0.901-5.188v0c-0.016-1.886 0.277-3.621 0.881-5.204 0.597-1.576 1.445-2.936 2.542-4.08 1.098-1.144 2.416-2.031 3.955-2.662 1.538-0.638 3.241-0.965 5.106-0.981v0c1.846-0.016 3.439 0.255 4.78 0.815 1.341 0.559 2.532 1.324 3.575 2.295v0l-1.084 1.56c-0.08 0.122-0.173 0.22-0.28 0.294-0.107 0.075-0.257 0.113-0.452 0.115v0c-0.154 0.001-0.316-0.051-0.485-0.157-0.169-0.113-0.371-0.249-0.607-0.407-0.236-0.159-0.513-0.331-0.831-0.517-0.31-0.185-0.684-0.357-1.122-0.514-0.431-0.164-0.932-0.297-1.503-0.399-0.572-0.109-1.23-0.161-1.975-0.155v0c-1.342 0.012-2.569 0.254-3.679 0.727-1.11 0.473-2.064 1.139-2.863 1.999-0.798 0.853-1.417 1.895-1.856 3.127-0.439 1.226-0.652 2.597-0.639 4.114v0c0.014 1.564 0.25 2.955 0.711 4.172 0.46 1.224 1.084 2.256 1.87 3.096 0.779 0.839 1.701 1.476 2.765 1.909 1.064 0.434 2.211 0.645 3.439 0.635v0c0.745-0.006 1.416-0.056 2.013-0.149 0.59-0.092 1.139-0.235 1.647-0.427 0.502-0.192 0.973-0.435 1.414-0.727 0.434-0.286 0.871-0.628 1.31-1.028v0c0.193-0.176 0.384-0.265 0.572-0.267z" fill="#bb84e8" data-fill-palette-color="primary"></path><path d="M176.905 249.257l5.407 24.481-3.333 0.737-2.46-11.14-13.185 2.912 2.461 11.14-3.333 0.736-5.408-24.481 3.333-0.737 2.413 10.924 13.184-2.913-2.412-10.923z" fill="#bb84e8" data-fill-palette-color="primary"></path><path d="M200.432 265.785l-8.033 3.763-10.636-22.703 7.239-3.392c1.398-0.655 2.667-1.079 3.807-1.272 1.131-0.196 2.14-0.195 3.027 0.005 0.89 0.206 1.66 0.601 2.312 1.185 0.661 0.587 1.206 1.34 1.636 2.258v0c0.262 0.559 0.426 1.138 0.492 1.738 0.066 0.599 0.026 1.203-0.118 1.812-0.145 0.609-0.402 1.215-0.772 1.818-0.373 0.597-0.865 1.176-1.477 1.737v0c1.81-0.455 3.342-0.446 4.594 0.027 1.249 0.467 2.206 1.409 2.869 2.826v0c0.45 0.96 0.685 1.921 0.706 2.883 0.018 0.955-0.18 1.878-0.593 2.768-0.416 0.884-1.045 1.717-1.888 2.497-0.839 0.771-1.894 1.455-3.165 2.05zM195.524 255.475l-4.896 2.294 3.699 7.896 4.915-2.302c0.875-0.41 1.579-0.862 2.111-1.356 0.538-0.497 0.925-1.023 1.162-1.579 0.239-0.549 0.335-1.121 0.287-1.713-0.045-0.587-0.21-1.184-0.495-1.792v0c-0.547-1.167-1.393-1.897-2.539-2.191-1.152-0.291-2.566-0.043-4.244 0.743zM185.972 247.831l3.631 7.75 4.057-1.901c0.869-0.407 1.574-0.856 2.116-1.347 0.544-0.485 0.947-0.992 1.21-1.523 0.254-0.534 0.369-1.088 0.344-1.662-0.024-0.574-0.17-1.147-0.438-1.719v0c-0.624-1.331-1.482-2.119-2.575-2.363-1.096-0.25-2.488 0.021-4.178 0.812v0z" fill="#bb84e8" data-fill-palette-color="primary"></path><path d="M216.082 225.123l1.899 17.584 6.07 7.906-2.675 2.054-6.071-7.906-16.481-6.387 2.356-1.809c0.24-0.184 0.476-0.268 0.708-0.252 0.238 0.012 0.475 0.067 0.71 0.166v0l10.482 4.227c0.43 0.186 0.82 0.373 1.169 0.563 0.343 0.193 0.672 0.39 0.985 0.589v0c-0.12-0.365-0.229-0.739-0.327-1.12-0.098-0.382-0.178-0.799-0.237-1.252v0l-1.394-11.206c-0.029-0.214-0.023-0.443 0.019-0.687 0.037-0.249 0.171-0.461 0.399-0.637v0z" fill="#bb84e8" data-fill-palette-color="primary"></path><path d="M216.311 224.807l13.061-14.647 2.134 1.903-5.388 6.042 16.578 14.784-2.258 2.532-16.578-14.783-5.415 6.072z" fill="#bb84e8" data-fill-palette-color="primary"></path><path d="M231.302 207.038l8.199-13.09 2.347 1.47-6.388 10.197 7.057 4.42 5.174-8.26 2.253 1.411-5.174 8.26 7.244 4.538 6.388-10.197 2.346 1.47-8.199 13.09z" fill="#bb84e8" data-fill-palette-color="primary"></path><path d="M248.276 177.615l1.202 1.348c0.123 0.164 0.205 0.315 0.244 0.453 0.037 0.144 0.021 0.304-0.047 0.479v0c-0.071 0.181-0.248 0.357-0.532 0.527-0.277 0.173-0.601 0.402-0.973 0.689-0.372 0.287-0.753 0.66-1.143 1.12-0.393 0.451-0.737 1.052-1.031 1.801v0c-0.277 0.706-0.424 1.366-0.441 1.98-0.026 0.617 0.051 1.174 0.231 1.67 0.183 0.49 0.46 0.913 0.833 1.268 0.364 0.359 0.802 0.639 1.315 0.84v0c0.65 0.255 1.253 0.308 1.809 0.158 0.552-0.158 1.085-0.44 1.597-0.844 0.512-0.405 1.009-0.899 1.489-1.482 0.487-0.58 0.987-1.174 1.499-1.78 0.512-0.607 1.049-1.186 1.612-1.737 0.562-0.551 1.174-0.999 1.837-1.345 0.662-0.346 1.388-0.551 2.178-0.616 0.787-0.059 1.662 0.101 2.624 0.478v0c1.025 0.402 1.915 0.953 2.672 1.654 0.759 0.694 1.338 1.506 1.738 2.434 0.4 0.929 0.599 1.955 0.598 3.079 0.001 1.118-0.241 2.296-0.726 3.533v0c-0.593 1.512-1.409 2.782-2.447 3.81-1.038 1.028-2.194 1.796-3.468 2.306v0l-1.143-1.497c-0.084-0.134-0.143-0.28-0.175-0.437-0.032-0.157-0.019-0.31 0.04-0.46v0c0.091-0.231 0.316-0.446 0.674-0.644 0.359-0.198 0.771-0.458 1.237-0.78 0.465-0.322 0.942-0.748 1.431-1.278 0.489-0.529 0.91-1.244 1.263-2.143v0c0.294-0.75 0.453-1.459 0.478-2.127 0.024-0.668-0.071-1.279-0.287-1.833-0.216-0.553-0.54-1.041-0.973-1.463-0.439-0.425-0.977-0.762-1.615-1.012v0c-0.706-0.277-1.348-0.341-1.925-0.193-0.575 0.142-1.117 0.412-1.627 0.811-0.512 0.405-1.002 0.901-1.471 1.489-0.472 0.579-0.958 1.174-1.458 1.785-0.502 0.618-1.027 1.202-1.574 1.752-0.556 0.553-1.171 1.001-1.846 1.341-0.672 0.335-1.421 0.524-2.245 0.569-0.827 0.05-1.757-0.127-2.788-0.532v0c-0.825-0.324-1.558-0.799-2.199-1.425-0.65-0.623-1.153-1.354-1.508-2.193-0.36-0.848-0.542-1.788-0.548-2.821-0.006-1.033 0.22-2.131 0.675-3.294v0c0.512-1.306 1.186-2.415 2.02-3.328 0.834-0.913 1.799-1.616 2.894-2.11z" fill="#bb84e8" data-fill-palette-color="primary"></path><path d="M3.656 143.668c0-5.347 4.335-9.682 9.682-9.682 5.347 0 9.682 4.335 9.682 9.682 0 5.347-4.335 9.682-9.682 9.681-5.347 0-9.682-4.335-9.682-9.681z" fill="#bb84e8" data-fill-palette-color="primary"></path><path d="M257.397 143.668c0-5.347 4.335-9.682 9.682-9.682 5.347 0 9.682 4.335 9.682 9.682 0 5.347-4.335 9.682-9.682 9.681-5.347 0-9.682-4.335-9.682-9.681z" fill="#bb84e8" data-fill-palette-color="primary"></path></g></svg></g></svg></g></svg></g></svg></g><defs></defs></svg><rect width="280" height="280" fill="none" stroke="none" visibility="hidden"></rect></g></svg></g></svg>